<svg width="40" height="32" viewBox="0 0 40 32" fill="none" xmlns="http://www.w3.org/2000/svg">
<path fill-rule="evenodd" clip-rule="evenodd" d="M37.1817 10.3224H8.97656V5.16113H37.1817C38.5978 5.16113 39.7458 6.31653 39.7458 7.74178C39.7458 9.16703 38.5978 10.3224 37.1817 10.3224Z" fill="#372477"/>
<path fill-rule="evenodd" clip-rule="evenodd" d="M34.6176 20.6447H8.97656V15.4834H34.6176C36.0337 15.4834 37.1817 16.6388 37.1817 18.064C37.1817 19.4893 36.0337 20.6447 34.6176 20.6447Z" fill="#6666FF"/>
<path fill-rule="evenodd" clip-rule="evenodd" d="M32.0535 30.9679H8.97656V25.8066H32.0535C33.4696 25.8066 34.6176 26.962 34.6176 28.3873C34.6176 29.8125 33.4696 30.9679 32.0535 30.9679Z" fill="#372477"/>
<path d="M7.69231 3.87097C7.69231 6.00884 5.97033 7.74194 3.84615 7.74194C1.72198 7.74194 0 6.00884 0 3.87097C0 1.73309 1.72198 0 3.84615 0C5.97033 0 7.69231 1.73309 7.69231 3.87097Z" fill="#372477"/>
<path fill-rule="evenodd" clip-rule="evenodd" d="M3.84495 4.5166C4.90704 4.5166 5.76803 5.38315 5.76803 6.45209V29.6779C5.76803 30.7468 4.90704 31.6134 3.84495 31.6134C2.78287 31.6134 1.92188 30.7468 1.92188 29.6779V6.45209C1.92188 5.38315 2.78287 4.5166 3.84495 4.5166Z" fill="url(#paint0_linear_467_3759)"/>
<defs>
<linearGradient id="paint0_linear_467_3759" x1="4.48598" y1="5.84088" x2="4.48598" y2="29.0667" gradientUnits="userSpaceOnUse">
<stop offset="0.140625" stop-color="white"/>
<stop offset="0.609375" stop-color="#22DDDD"/>
<stop offset="1" stop-color="#6666FF"/>
</linearGradient>
</defs>
</svg>
