<svg width="1920" height="1080" viewBox="0 0 1920 1080" fill="none" xmlns="http://www.w3.org/2000/svg">
<g clip-path="url(#clip0_1545_851)">
<rect width="1920" height="1080" fill="#F8F8F9"/>
<g filter="url(#filter0_d_1545_851)">
<path fill-rule="evenodd" clip-rule="evenodd" d="M0 3.99998C0 1.79084 1.79086 0 4 0H1916C1918.21 0 1920 1.79086 1920 4V1077C1920 1079.21 1918.21 1081 1916 1081H4.00005C1.79091 1081 0 1079.21 0 1077V3.99998Z" fill="#BDCEFC" fill-opacity="0.4"/>
</g>
<g filter="url(#filter1_f_1545_851)">
<path d="M1455.71 567.639C1293.97 718.926 1040.21 710.451 888.928 548.712C737.642 386.972 746.116 133.214 907.855 -18.0719C1069.6 -169.358 1323.35 -160.884 1474.64 0.855586C1625.93 162.595 1617.45 416.353 1455.71 567.639Z" fill="url(#paint0_linear_1545_851)" fill-opacity="0.6"/>
</g>
<g filter="url(#filter2_df_1545_851)">
<path d="M1243 697C1243 816.294 1146.29 913 1027 913C907.706 913 811 816.294 811 697C811 577.706 907.706 481 1027 481C1146.29 481 1243 577.706 1243 697Z" fill="url(#paint1_linear_1545_851)" fill-opacity="0.8" shape-rendering="crispEdges"/>
</g>
<g filter="url(#filter3_df_1545_851)">
<path fill-rule="evenodd" clip-rule="evenodd" d="M1027 883C1129.72 883 1213 799.725 1213 697C1213 594.275 1129.72 511 1027 511C924.275 511 841 594.275 841 697C841 799.725 924.275 883 1027 883ZM1027 913C1146.29 913 1243 816.294 1243 697C1243 577.706 1146.29 481 1027 481C907.706 481 811 577.706 811 697C811 816.294 907.706 913 1027 913Z" fill="#BDCEFC"/>
</g>
<g opacity="0.3" filter="url(#filter4_f_1545_851)">
<path d="M1114 935.5C1114 1108.09 974.089 1248 801.5 1248C628.911 1248 489 1108.09 489 935.5C489 762.911 628.911 623 801.5 623C974.089 623 1114 762.911 1114 935.5Z" fill="url(#paint2_linear_1545_851)"/>
</g>
</g>
<defs>
<filter id="filter0_d_1545_851" x="-8" y="-6" width="1936" height="1097" filterUnits="userSpaceOnUse" color-interpolation-filters="sRGB">
<feFlood flood-opacity="0" result="BackgroundImageFix"/>
<feColorMatrix in="SourceAlpha" type="matrix" values="0 0 0 0 0 0 0 0 0 0 0 0 0 0 0 0 0 0 127 0" result="hardAlpha"/>
<feOffset dy="2"/>
<feGaussianBlur stdDeviation="4"/>
<feColorMatrix type="matrix" values="0 0 0 0 0 0 0 0 0 0 0 0 0 0 0 0 0 0 0.03 0"/>
<feBlend mode="normal" in2="BackgroundImageFix" result="effect1_dropShadow_1545_851"/>
<feBlend mode="normal" in="SourceGraphic" in2="effect1_dropShadow_1545_851" result="shape"/>
</filter>
<filter id="filter1_f_1545_851" x="720.781" y="-186.218" width="922" height="922.003" filterUnits="userSpaceOnUse" color-interpolation-filters="sRGB">
<feFlood flood-opacity="0" result="BackgroundImageFix"/>
<feBlend mode="normal" in="SourceGraphic" in2="BackgroundImageFix" result="shape"/>
<feGaussianBlur stdDeviation="30" result="effect1_foregroundBlur_1545_851"/>
</filter>
<filter id="filter2_df_1545_851" x="751" y="421" width="552" height="552" filterUnits="userSpaceOnUse" color-interpolation-filters="sRGB">
<feFlood flood-opacity="0" result="BackgroundImageFix"/>
<feColorMatrix in="SourceAlpha" type="matrix" values="0 0 0 0 0 0 0 0 0 0 0 0 0 0 0 0 0 0 127 0" result="hardAlpha"/>
<feOffset dy="4"/>
<feGaussianBlur stdDeviation="2"/>
<feComposite in2="hardAlpha" operator="out"/>
<feColorMatrix type="matrix" values="0 0 0 0 0 0 0 0 0 0 0 0 0 0 0 0 0 0 0.25 0"/>
<feBlend mode="normal" in2="BackgroundImageFix" result="effect1_dropShadow_1545_851"/>
<feBlend mode="normal" in="SourceGraphic" in2="effect1_dropShadow_1545_851" result="shape"/>
<feGaussianBlur stdDeviation="30" result="effect2_foregroundBlur_1545_851"/>
</filter>
<filter id="filter3_df_1545_851" x="751" y="421" width="552" height="552" filterUnits="userSpaceOnUse" color-interpolation-filters="sRGB">
<feFlood flood-opacity="0" result="BackgroundImageFix"/>
<feColorMatrix in="SourceAlpha" type="matrix" values="0 0 0 0 0 0 0 0 0 0 0 0 0 0 0 0 0 0 127 0" result="hardAlpha"/>
<feOffset dy="4"/>
<feGaussianBlur stdDeviation="2"/>
<feComposite in2="hardAlpha" operator="out"/>
<feColorMatrix type="matrix" values="0 0 0 0 0 0 0 0 0 0 0 0 0 0 0 0 0 0 0.25 0"/>
<feBlend mode="normal" in2="BackgroundImageFix" result="effect1_dropShadow_1545_851"/>
<feBlend mode="normal" in="SourceGraphic" in2="effect1_dropShadow_1545_851" result="shape"/>
<feGaussianBlur stdDeviation="30" result="effect2_foregroundBlur_1545_851"/>
</filter>
<filter id="filter4_f_1545_851" x="429" y="563" width="745" height="745" filterUnits="userSpaceOnUse" color-interpolation-filters="sRGB">
<feFlood flood-opacity="0" result="BackgroundImageFix"/>
<feBlend mode="normal" in="SourceGraphic" in2="BackgroundImageFix" result="shape"/>
<feGaussianBlur stdDeviation="30" result="effect1_foregroundBlur_1545_851"/>
</filter>
<linearGradient id="paint0_linear_1545_851" x1="1438.59" y1="-413.175" x2="1004.18" y2="552.977" gradientUnits="userSpaceOnUse">
<stop stop-color="#6666FF"/>
<stop offset="1" stop-color="#6666FF" stop-opacity="0"/>
</linearGradient>
<linearGradient id="paint1_linear_1545_851" x1="1165.61" y1="443.89" x2="924.868" y2="913" gradientUnits="userSpaceOnUse">
<stop stop-color="#6666FF"/>
<stop offset="1" stop-color="#6666FF" stop-opacity="0"/>
</linearGradient>
<linearGradient id="paint2_linear_1545_851" x1="972.5" y1="1353" x2="802" y2="936" gradientUnits="userSpaceOnUse">
<stop stop-color="#64EED9"/>
<stop offset="1" stop-color="#8CDEFA" stop-opacity="0.45"/>
</linearGradient>
<clipPath id="clip0_1545_851">
<rect width="1920" height="1080" fill="white"/>
</clipPath>
</defs>
</svg>
