<svg width="132" height="174" viewBox="0 0 132 174" fill="none" xmlns="http://www.w3.org/2000/svg">
<g filter="url(#filter0_d_467_3427)">
<g filter="url(#filter1_d_467_3427)">
<path d="M52.9267 81C52.9267 94.2548 42.1752 105 28.9126 105C15.6499 105 4.89844 94.2548 4.89844 81C4.89844 67.7452 15.6499 57 28.9126 57C42.1752 57 52.9267 67.7452 52.9267 81Z" fill="#372477"/>
<path d="M22.9094 71C22.9094 74.3137 20.2215 77 16.9059 77C13.5902 77 10.9023 74.3137 10.9023 71C10.9023 67.6863 13.5902 65 16.9059 65C20.2215 65 22.9094 67.6863 22.9094 71Z" fill="white"/>
<path d="M124.97 81C124.97 94.2548 114.218 105 100.956 105C87.6929 105 76.9414 94.2548 76.9414 81C76.9414 67.7452 87.6929 57 100.956 57C114.218 57 124.97 67.7452 124.97 81Z" fill="#372477"/>
<path d="M94.9524 71C94.9524 74.3137 92.2645 77 88.9488 77C85.6332 77 82.9453 74.3137 82.9453 71C82.9453 67.6863 85.6332 65 88.9488 65C92.2645 65 94.9524 67.6863 94.9524 71Z" fill="white"/>
<path d="M52.9267 24C52.9267 37.2548 42.1752 48 28.9126 48C15.6499 48 4.89844 37.2548 4.89844 24C4.89844 10.7452 15.6499 0 28.9126 0C42.1752 0 52.9267 10.7452 52.9267 24Z" fill="#6666FF"/>
<path d="M22.9094 14C22.9094 17.3137 20.2215 20 16.9059 20C13.5902 20 10.9023 17.3137 10.9023 14C10.9023 10.6863 13.5902 8 16.9059 8C20.2215 8 22.9094 10.6863 22.9094 14Z" fill="white"/>
<path d="M124.97 24C124.97 37.2548 114.218 48 100.956 48C87.6929 48 76.9414 37.2548 76.9414 24C76.9414 10.7452 87.6929 0 100.956 0C114.218 0 124.97 10.7452 124.97 24Z" fill="#6666FF"/>
<path d="M94.9524 14C94.9524 17.3137 92.2645 20 88.9488 20C85.6332 20 82.9453 17.3137 82.9453 14C82.9453 10.6863 85.6332 8 88.9488 8C92.2645 8 94.9524 10.6863 94.9524 14Z" fill="white"/>
<path fill-rule="evenodd" clip-rule="evenodd" d="M115 163H5V123H115C120.523 123 125 131.954 125 143C125 154.046 120.523 163 115 163Z" fill="url(#paint0_linear_467_3427)"/>
</g>
</g>
<defs>
<filter id="filter0_d_467_3427" x="3.89844" y="0" width="128.102" height="174" filterUnits="userSpaceOnUse" color-interpolation-filters="sRGB">
<feFlood flood-opacity="0" result="BackgroundImageFix"/>
<feColorMatrix in="SourceAlpha" type="matrix" values="0 0 0 0 0 0 0 0 0 0 0 0 0 0 0 0 0 0 127 0" result="hardAlpha"/>
<feOffset dx="3" dy="7"/>
<feGaussianBlur stdDeviation="2"/>
<feComposite in2="hardAlpha" operator="out"/>
<feColorMatrix type="matrix" values="0 0 0 0 0 0 0 0 0 0 0 0 0 0 0 0 0 0 0.25 0"/>
<feBlend mode="normal" in2="BackgroundImageFix" result="effect1_dropShadow_467_3427"/>
<feBlend mode="normal" in="SourceGraphic" in2="effect1_dropShadow_467_3427" result="shape"/>
</filter>
<filter id="filter1_d_467_3427" x="0.898438" y="0" width="128.102" height="171" filterUnits="userSpaceOnUse" color-interpolation-filters="sRGB">
<feFlood flood-opacity="0" result="BackgroundImageFix"/>
<feColorMatrix in="SourceAlpha" type="matrix" values="0 0 0 0 0 0 0 0 0 0 0 0 0 0 0 0 0 0 127 0" result="hardAlpha"/>
<feOffset dy="4"/>
<feGaussianBlur stdDeviation="2"/>
<feComposite in2="hardAlpha" operator="out"/>
<feColorMatrix type="matrix" values="0 0 0 0 0 0 0 0 0 0 0 0 0 0 0 0 0 0 0.25 0"/>
<feBlend mode="normal" in2="BackgroundImageFix" result="effect1_dropShadow_467_3427"/>
<feBlend mode="normal" in="SourceGraphic" in2="effect1_dropShadow_467_3427" result="shape"/>
</filter>
<linearGradient id="paint0_linear_467_3427" x1="5" y1="163" x2="134.6" y2="163" gradientUnits="userSpaceOnUse">
<stop stop-color="#6666FF"/>
<stop offset="1" stop-color="#22DDDD" stop-opacity="0.44"/>
</linearGradient>
</defs>
</svg>
