<svg width="36" height="33" viewBox="0 0 36 33" fill="none" xmlns="http://www.w3.org/2000/svg">
<ellipse cx="23.6468" cy="17.0004" rx="5.4124" ry="5.45454" fill="#6666FF"/>
<path d="M11.7127 3.92205C10.6512 3.61667 10.0382 2.50858 10.3436 1.44706C10.649 0.385547 11.757 -0.227424 12.8186 0.0779538L11.7127 3.92205ZM12.8186 0.0779538L30.7808 5.24536L29.675 9.08945L11.7127 3.92205L12.8186 0.0779538ZM35.122 11.0115L35.122 32L31.122 32L31.122 11.0115L35.122 11.0115ZM30.7808 5.24536C33.3514 5.98487 35.122 8.33665 35.122 11.0115L31.122 11.0115C31.122 10.1199 30.5318 9.33595 29.675 9.08945L30.7808 5.24536Z" fill="#372477"/>
<path d="M13.2749 3.72667C14.2285 3.16926 14.5497 1.94435 13.9923 0.990733C13.4349 0.037121 12.21 -0.28407 11.2564 0.273333L13.2749 3.72667ZM11.2564 0.273333L2.97293 5.11514L4.99146 8.56847L13.2749 3.72667L11.2564 0.273333ZM0.000727675 10.2951L0.000727729 32L4.00073 32L4.00073 10.2951L0.000727675 10.2951ZM2.97293 5.11514C1.13221 6.19107 0.000727669 8.16303 0.000727675 10.2951L4.00073 10.2951C4.00073 9.58444 4.37789 8.92712 4.99146 8.56847L2.97293 5.11514Z" fill="#372477"/>
<path d="M8.76567 30.1191L21.3086 19.7275" stroke="url(#paint0_linear_467_3783)" stroke-width="4" stroke-linecap="round"/>
<defs>
<linearGradient id="paint0_linear_467_3783" x1="21.9547" y1="19.8415" x2="9.33345" y2="30.137" gradientUnits="userSpaceOnUse">
<stop offset="0.140625" stop-color="white"/>
<stop offset="0.609375" stop-color="#22DDDD"/>
<stop offset="1" stop-color="#6666FF"/>
</linearGradient>
</defs>
</svg>
