<svg width="37" height="32" viewBox="0 0 37 32" fill="none" xmlns="http://www.w3.org/2000/svg">
<path d="M36.833 27.8571C36.833 29.9874 35.1005 31.7143 32.9634 31.7143C30.8262 31.7143 29.0938 29.9874 29.0938 27.8571C29.0938 25.7269 30.8262 24 32.9634 24C35.1005 24 36.833 25.7269 36.833 27.8571Z" fill="#372477"/>
<path fill-rule="evenodd" clip-rule="evenodd" d="M35.0665 2.16606C35.3364 3.61257 34.4114 5.00952 33.0006 5.28625L7.31414 10.3243C6.08836 10.5647 5.20191 11.6638 5.20191 12.9434L5.20191 32L1.70936e-05 32L1.82727e-05 12.9434C1.85102e-05 9.10479 2.65935 5.80726 6.33672 5.086L32.0231 0.0479858C33.434 -0.228737 34.7966 0.719559 35.0665 2.16606Z" fill="#6666FF"/>
<path fill-rule="evenodd" clip-rule="evenodd" d="M35.0193 1.96021C35.4012 3.38023 34.5849 4.84794 33.1959 5.23844L16.1626 10.0272C15.0304 10.3455 14.2458 11.398 14.2458 12.5984L14.2458 32L9.02914 32L9.02914 12.5984C9.02914 8.99715 11.3828 5.83981 14.7793 4.88492L31.8127 0.0961226C33.2016 -0.294381 34.6373 0.540201 35.0193 1.96021Z" fill="#372477"/>
<path fill-rule="evenodd" clip-rule="evenodd" d="M32.6781 23.1426C31.2533 23.1426 30.0983 21.9913 30.0983 20.5711L30.0983 2.57115C30.0983 1.15099 31.2533 -0.000278633 32.6781 -0.000278576C34.1028 -0.000278519 35.2578 1.15099 35.2578 2.57115L35.2578 20.5711C35.2578 21.9913 34.1028 23.1426 32.6781 23.1426Z" fill="url(#paint0_linear_467_3795)"/>
<defs>
<linearGradient id="paint0_linear_467_3795" x1="32.0331" y1="21.0448" x2="32.0331" y2="3.04483" gradientUnits="userSpaceOnUse">
<stop offset="0.140625" stop-color="white"/>
<stop offset="0.609375" stop-color="#22DDDD"/>
<stop offset="1" stop-color="#6666FF"/>
</linearGradient>
</defs>
</svg>
