<svg width="37" height="42" viewBox="0 0 37 42" fill="none" xmlns="http://www.w3.org/2000/svg">
<path opacity="0.8" d="M17.2891 1.48467C17.2891 0.263177 15.8943 -0.433846 14.9174 0.299449L0.591648 11.0529C0.218763 11.3328 -0.000658035 11.7719 -0.000658035 12.2381V26.1812C-0.000658035 27.4027 1.39409 28.0998 2.37099 27.3665L16.6968 16.613C17.0696 16.3331 17.2891 15.894 17.2891 15.4278V1.48467Z" fill="url(#paint0_linear_467_3727)"/>
<path opacity="0.8" fill-rule="evenodd" clip-rule="evenodd" d="M0.888205 11.448L15.214 0.694522C15.8652 0.20566 16.7951 0.670339 16.7951 1.48467V15.4278C16.7951 15.7386 16.6488 16.0313 16.4002 16.2179L2.07443 26.9714C1.42317 27.4603 0.493334 26.9956 0.493334 26.1812V12.2381C0.493334 11.9273 0.639614 11.6346 0.888205 11.448ZM14.9174 0.299449C15.8943 -0.433846 17.2891 0.263177 17.2891 1.48467V15.4278C17.2891 15.894 17.0696 16.3331 16.6968 16.613L2.37099 27.3665C1.39409 28.0998 -0.000658035 27.4027 -0.000658035 26.1812V12.2381C-0.000658035 11.7719 0.218761 11.3328 0.591648 11.0529L14.9174 0.299449Z" fill="url(#paint1_linear_467_3727)"/>
<path opacity="0.8" d="M19.7109 1.48467C19.7109 0.263177 21.1057 -0.433846 22.0826 0.299449L36.4084 11.0529C36.7812 11.3328 37.0007 11.7719 37.0007 12.2381V26.1812C37.0007 27.4027 35.6059 28.0998 34.629 27.3665L20.3032 16.613C19.9304 16.3331 19.7109 15.894 19.7109 15.4278V1.48467Z" fill="url(#paint2_linear_467_3727)"/>
<path opacity="0.8" fill-rule="evenodd" clip-rule="evenodd" d="M36.1118 11.448L21.786 0.694522C21.1348 0.20566 20.2049 0.670339 20.2049 1.48467V15.4278C20.2049 15.7386 20.3512 16.0313 20.5998 16.2179L34.9256 26.9714C35.5768 27.4603 36.5067 26.9956 36.5067 26.1812V12.2381C36.5067 11.9273 36.3604 11.6346 36.1118 11.448ZM22.0826 0.299449C21.1057 -0.433846 19.7109 0.263177 19.7109 1.48467V15.4278C19.7109 15.894 19.9304 16.3331 20.3032 16.613L34.629 27.3665C35.6059 28.0998 37.0007 27.4027 37.0007 26.1812V12.2381C37.0007 11.7719 36.7812 11.3328 36.4084 11.0529L22.0826 0.299449Z" fill="url(#paint3_linear_467_3727)"/>
<path d="M17.9805 3.28734C17.9805 2.07979 16.6137 1.37915 15.6333 2.08414L2.29551 11.6752C1.90828 11.9536 1.67873 12.4014 1.67873 12.8783V25.1688C1.67873 26.3764 3.04552 27.077 4.02591 26.372L17.3637 16.781C17.7509 16.5026 17.9805 16.0548 17.9805 15.5778V3.28734Z" fill="url(#paint4_linear_467_3727)"/>
<path fill-rule="evenodd" clip-rule="evenodd" d="M2.58391 12.0762L15.9217 2.4852C16.5753 2.01521 17.4865 2.4823 17.4865 3.28734V15.5778C17.4865 15.8958 17.3334 16.1943 17.0753 16.38L3.73751 25.971C3.08392 26.441 2.17272 25.9739 2.17272 25.1688V12.8783C2.17272 12.5604 2.32576 12.2619 2.58391 12.0762ZM15.6333 2.08414C16.6137 1.37915 17.9805 2.07979 17.9805 3.28734V15.5778C17.9805 16.0548 17.7509 16.5026 17.3637 16.781L4.02591 26.372C3.04552 27.077 1.67873 26.3764 1.67873 25.1688V12.8783C1.67873 12.4014 1.90828 11.9536 2.29551 11.6752L15.6333 2.08414Z" fill="url(#paint5_linear_467_3727)"/>
<path d="M2.32031 13.365C2.32031 12.1574 3.6871 11.4568 4.66749 12.1618L18.0053 21.7528C18.3925 22.0312 18.622 22.479 18.622 22.956V35.2465C18.622 36.454 17.2553 37.1547 16.2749 36.4497L2.93709 26.8587C2.54986 26.5802 2.32031 26.1324 2.32031 25.6555V13.365Z" fill="url(#paint6_linear_467_3727)"/>
<path fill-rule="evenodd" clip-rule="evenodd" d="M17.7169 22.1539L4.37909 12.5628C3.7255 12.0929 2.8143 12.5599 2.8143 13.365V25.6555C2.8143 25.9734 2.96734 26.272 3.22549 26.4576L16.5633 36.0486C17.2169 36.5186 18.1281 36.0515 18.1281 35.2465V22.956C18.1281 22.638 17.975 22.3395 17.7169 22.1539ZM4.66749 12.1618C3.6871 11.4568 2.32031 12.1574 2.32031 13.365V25.6555C2.32031 26.1324 2.54986 26.5802 2.93709 26.8587L16.2749 36.4497C17.2553 37.1547 18.622 36.454 18.622 35.2465V22.956C18.622 22.479 18.3925 22.0312 18.0053 21.7528L4.66749 12.1618Z" fill="url(#paint7_linear_467_3727)"/>
<path opacity="0.8" d="M0 15.0562C0 13.8347 1.39475 13.1377 2.37165 13.871L16.6974 24.6244C17.0703 24.9044 17.2897 25.3434 17.2897 25.8097V39.7528C17.2897 40.9743 15.895 41.6713 14.9181 40.938L0.592306 30.1845C0.219421 29.9046 0 29.4656 0 28.9993V15.0562Z" fill="url(#paint8_linear_467_3727)"/>
<path opacity="0.8" fill-rule="evenodd" clip-rule="evenodd" d="M16.4009 25.0195L2.07509 14.2661C1.42383 13.7772 0.493992 14.2419 0.493992 15.0562V28.9993C0.493992 29.3101 0.640272 29.6029 0.888863 29.7895L15.2146 40.5429C15.8659 41.0318 16.7957 40.5671 16.7957 39.7528V25.8097C16.7957 25.4988 16.6494 25.2061 16.4009 25.0195ZM2.37165 13.871C1.39475 13.1377 0 13.8347 0 15.0562V28.9993C0 29.4656 0.219421 29.9046 0.592306 30.1845L14.9181 40.938C15.895 41.6713 17.2897 40.9743 17.2897 39.7528V25.8097C17.2897 25.3434 17.0703 24.9044 16.6974 24.6244L2.37165 13.871Z" fill="url(#paint9_linear_467_3727)"/>
<path d="M19.1172 3.28734C19.1172 2.07979 20.484 1.37915 21.4644 2.08414L34.8021 11.6752C35.1894 11.9536 35.4189 12.4014 35.4189 12.8783V25.1688C35.4189 26.3764 34.0521 27.077 33.0717 26.372L19.734 16.781C19.3467 16.5026 19.1172 16.0548 19.1172 15.5778V3.28734Z" fill="url(#paint10_linear_467_3727)"/>
<path fill-rule="evenodd" clip-rule="evenodd" d="M34.5137 12.0762L21.176 2.4852C20.5224 2.01521 19.6112 2.4823 19.6112 3.28734V15.5778C19.6112 15.8958 19.7642 16.1943 20.0224 16.38L33.3601 25.971C34.0137 26.441 34.9249 25.9739 34.9249 25.1688V12.8783C34.9249 12.5604 34.7719 12.2619 34.5137 12.0762ZM21.4644 2.08414C20.484 1.37915 19.1172 2.07979 19.1172 3.28734V15.5778C19.1172 16.0548 19.3467 16.5026 19.734 16.781L33.0717 26.372C34.0521 27.077 35.4189 26.3764 35.4189 25.1688V12.8783C35.4189 12.4014 35.1894 11.9536 34.8021 11.6752L21.4644 2.08414Z" fill="url(#paint11_linear_467_3727)"/>
<path d="M35.3711 13.365C35.3711 12.1574 34.0043 11.4568 33.0239 12.1618L19.6861 21.7528C19.2989 22.0312 19.0694 22.479 19.0694 22.956V35.2465C19.0694 36.454 20.4361 37.1547 21.4165 36.4497L34.7543 26.8587C35.1415 26.5802 35.3711 26.1324 35.3711 25.6555V13.365Z" fill="url(#paint12_linear_467_3727)"/>
<path fill-rule="evenodd" clip-rule="evenodd" d="M19.9745 22.1539L33.3123 12.5628C33.9659 12.0929 34.8771 12.5599 34.8771 13.365V25.6555C34.8771 25.9734 34.7241 26.272 34.4659 26.4576L21.1281 36.0486C20.4745 36.5186 19.5633 36.0515 19.5633 35.2465V22.956C19.5633 22.638 19.7164 22.3395 19.9745 22.1539ZM33.0239 12.1618C34.0043 11.4568 35.3711 12.1574 35.3711 13.365V25.6555C35.3711 26.1324 35.1415 26.5802 34.7543 26.8587L21.4165 36.4497C20.4361 37.1547 19.0694 36.454 19.0694 35.2465V22.956C19.0694 22.479 19.2989 22.0312 19.6861 21.7528L33.0239 12.1618Z" fill="url(#paint13_linear_467_3727)"/>
<path opacity="0.8" d="M37 15.0696C37 13.8481 35.6053 13.1511 34.6284 13.8844L20.3026 24.6379C19.9297 24.9178 19.7103 25.3568 19.7103 25.8231V39.7662C19.7103 40.9877 21.105 41.6847 22.0819 40.9514L36.4077 30.198C36.7806 29.9181 37 29.479 37 29.0127V15.0696Z" fill="url(#paint14_linear_467_3727)"/>
<path opacity="0.8" fill-rule="evenodd" clip-rule="evenodd" d="M20.5991 25.0329L34.9249 14.2795C35.5762 13.7906 36.506 14.2553 36.506 15.0696V29.0127C36.506 29.3236 36.3597 29.6163 36.1111 29.8029L21.7854 40.5563C21.1341 41.0452 20.2043 40.5805 20.2043 39.7662V25.8231C20.2043 25.5123 20.3506 25.2196 20.5991 25.0329ZM34.6284 13.8844C35.6053 13.1511 37 13.8481 37 15.0696V29.0127C37 29.479 36.7806 29.9181 36.4077 30.198L22.0819 40.9514C21.105 41.6847 19.7103 40.9877 19.7103 39.7662V25.8231C19.7103 25.3568 19.9297 24.9178 20.3026 24.6379L34.6284 13.8844Z" fill="url(#paint15_linear_467_3727)"/>
<defs>
<linearGradient id="paint0_linear_467_3727" x1="3.4137" y1="13.8576" x2="10.5684" y2="22.6823" gradientUnits="userSpaceOnUse">
<stop stop-color="#6666FF"/>
<stop offset="1" stop-color="#8AF9F9"/>
</linearGradient>
<linearGradient id="paint1_linear_467_3727" x1="1.74284" y1="9.21631" x2="10.7126" y2="16.5049" gradientUnits="userSpaceOnUse">
<stop offset="0.109375" stop-color="#3535EA"/>
<stop offset="1" stop-color="#6774FE" stop-opacity="0"/>
</linearGradient>
<linearGradient id="paint2_linear_467_3727" x1="35.3298" y1="12.4767" x2="25.015" y2="24.5973" gradientUnits="userSpaceOnUse">
<stop stop-color="#BABAFD"/>
<stop offset="1" stop-color="#A7FDFD"/>
</linearGradient>
<linearGradient id="paint3_linear_467_3727" x1="35.2572" y1="9.21631" x2="26.2874" y2="16.5049" gradientUnits="userSpaceOnUse">
<stop offset="0.109375" stop-color="#6666FF"/>
<stop offset="1" stop-color="#6774FE" stop-opacity="0"/>
</linearGradient>
<linearGradient id="paint4_linear_467_3727" x1="17.9805" y1="-0.810445" x2="9.03752" y2="17.8711" gradientUnits="userSpaceOnUse">
<stop stop-color="#6666FF"/>
<stop offset="1" stop-color="#22DDDD"/>
</linearGradient>
<linearGradient id="paint5_linear_467_3727" x1="3.76858" y1="13.1308" x2="13.247" y2="17.7543" gradientUnits="userSpaceOnUse">
<stop stop-color="#6DFEFF"/>
<stop offset="1" stop-color="white" stop-opacity="0"/>
</linearGradient>
<linearGradient id="paint6_linear_467_3727" x1="18.622" y1="20.8601" x2="8.48296" y2="29.5923" gradientUnits="userSpaceOnUse">
<stop stop-color="#6666FF"/>
<stop offset="1" stop-color="#22DDDD"/>
</linearGradient>
<linearGradient id="paint7_linear_467_3727" x1="18.622" y1="23.3459" x2="7.09607" y2="27.5972" gradientUnits="userSpaceOnUse">
<stop stop-color="#6AFFFF"/>
<stop offset="1" stop-color="white" stop-opacity="0"/>
</linearGradient>
<linearGradient id="paint8_linear_467_3727" x1="15.6189" y1="26.0482" x2="5.3041" y2="38.1688" gradientUnits="userSpaceOnUse">
<stop stop-color="#BABAFD"/>
<stop offset="1" stop-color="#A7FDFD"/>
</linearGradient>
<linearGradient id="paint9_linear_467_3727" x1="15.5462" y1="22.7878" x2="6.57641" y2="30.0765" gradientUnits="userSpaceOnUse">
<stop offset="0.109375" stop-color="#6666FF"/>
<stop offset="1" stop-color="#6774FE" stop-opacity="0"/>
</linearGradient>
<linearGradient id="paint10_linear_467_3727" x1="35.4189" y1="10.7825" x2="25.2798" y2="19.5147" gradientUnits="userSpaceOnUse">
<stop stop-color="#6666FF"/>
<stop offset="1" stop-color="#22DDDD"/>
</linearGradient>
<linearGradient id="paint11_linear_467_3727" x1="35.4189" y1="13.2682" x2="23.8929" y2="17.5195" gradientUnits="userSpaceOnUse">
<stop stop-color="#6AFFFF"/>
<stop offset="1" stop-color="white" stop-opacity="0"/>
</linearGradient>
<linearGradient id="paint12_linear_467_3727" x1="35.3711" y1="9.26719" x2="26.4281" y2="27.9488" gradientUnits="userSpaceOnUse">
<stop stop-color="#6666FF"/>
<stop offset="1" stop-color="#22DDDD"/>
</linearGradient>
<linearGradient id="paint13_linear_467_3727" x1="21.1592" y1="23.2084" x2="30.6376" y2="27.8319" gradientUnits="userSpaceOnUse">
<stop stop-color="#6DFEFF"/>
<stop offset="1" stop-color="white" stop-opacity="0"/>
</linearGradient>
<linearGradient id="paint14_linear_467_3727" x1="23.1246" y1="27.4426" x2="30.2793" y2="36.2672" gradientUnits="userSpaceOnUse">
<stop stop-color="#6666FF"/>
<stop offset="1" stop-color="#8AF9F9"/>
</linearGradient>
<linearGradient id="paint15_linear_467_3727" x1="21.4538" y1="22.8013" x2="30.4236" y2="30.0899" gradientUnits="userSpaceOnUse">
<stop offset="0.109375" stop-color="#3535EA"/>
<stop offset="1" stop-color="#6774FE" stop-opacity="0"/>
</linearGradient>
</defs>
</svg>
