<svg width="38" height="32" viewBox="0 0 38 32" fill="none" xmlns="http://www.w3.org/2000/svg">
<ellipse cx="18.5613" cy="22" rx="10.534" ry="9" fill="#372477"/>
<path fill-rule="evenodd" clip-rule="evenodd" d="M18.5599 31.4932C28.8102 31.4932 37.1197 28.2886 37.1197 24.3355C37.1197 20.3824 28.8102 17.1777 18.5599 17.1777C8.30954 17.1777 0 20.3824 0 24.3355C0 28.2886 8.30954 31.4932 18.5599 31.4932ZM18.5599 28.6301C23.685 28.6301 27.8398 26.3869 27.8398 23.6197C27.8398 20.8525 23.685 18.6093 18.5599 18.6093C13.4347 18.6093 9.27993 20.8525 9.27993 23.6197C9.27993 26.3869 13.4347 28.6301 18.5599 28.6301Z" fill="#372477"/>
<path fill-rule="evenodd" clip-rule="evenodd" d="M18.5599 27.5303C28.8102 27.5303 37.1197 24.3257 37.1197 20.3726C37.1197 16.4195 28.8102 13.2148 18.5599 13.2148C8.30954 13.2148 0 16.4195 0 20.3726C0 24.3257 8.30954 27.5303 18.5599 27.5303ZM18.5599 24.6672C23.685 24.6672 27.8398 22.424 27.8398 19.6568C27.8398 16.8896 23.685 14.6464 18.5599 14.6464C13.4347 14.6464 9.27993 16.8896 9.27993 19.6568C9.27993 22.424 13.4347 24.6672 18.5599 24.6672Z" fill="#6666FF"/>
<path fill-rule="evenodd" clip-rule="evenodd" d="M18.5595 22.4648C17.0952 22.4648 15.9081 21.2816 15.9081 19.822L15.9081 9.25056L21.2109 9.25056L21.2109 19.822C21.2109 21.2816 20.0239 22.4648 18.5595 22.4648Z" fill="url(#paint0_linear_467_3747)"/>
<path d="M22.5402 3.96429C22.5402 6.1537 20.7596 7.92857 18.5631 7.92857C16.3666 7.92857 14.5859 6.1537 14.5859 3.96429C14.5859 1.77487 16.3666 0 18.5631 0C20.7596 0 22.5402 1.77487 22.5402 3.96429Z" fill="#372477"/>
<defs>
<linearGradient id="paint0_linear_467_3747" x1="17.8967" y1="19.822" x2="17.8967" y2="9.25056" gradientUnits="userSpaceOnUse">
<stop stop-color="#6666FF"/>
<stop offset="0.510417" stop-color="#22DDDD"/>
<stop offset="0.947917" stop-color="white"/>
</linearGradient>
</defs>
</svg>
