<svg width="36" height="32" viewBox="0 0 36 32" fill="none" xmlns="http://www.w3.org/2000/svg">
<path d="M35.3428 3.75C35.3428 5.82107 33.6475 7.5 31.5562 7.5C29.4649 7.5 27.7695 5.82107 27.7695 3.75C27.7695 1.67893 29.4649 0 31.5562 0C33.6475 0 35.3428 1.67893 35.3428 3.75Z" fill="#372477"/>
<path fill-rule="evenodd" clip-rule="evenodd" d="M31.5557 8.75C32.9499 8.75 34.0801 9.75736 34.0801 11L34.0801 29C34.0801 30.2426 32.9499 31.25 31.5557 31.25C30.1615 31.25 29.0312 30.2426 29.0312 29L29.0312 11C29.0312 9.75736 30.1615 8.75 31.5557 8.75Z" fill="#372477"/>
<path fill-rule="evenodd" clip-rule="evenodd" d="M24.6856 5.625C24.4341 5.625 24.2066 5.77285 24.1066 6.00133L17.6431 20.761C16.3321 23.7548 12.2923 24.3248 10.1892 21.8127L6.11553 16.9467C5.44814 16.1495 5.55967 14.9675 6.36465 14.3066C7.16962 13.6456 8.3632 13.7561 9.03059 14.5533L13.1043 19.4192C13.4047 19.7781 13.9818 19.6967 14.1691 19.269L20.6325 4.50932C21.3329 2.90995 22.9253 1.875 24.6856 1.875H32.8174V5.625H24.6856Z" fill="url(#paint0_linear_467_3772)"/>
<path fill-rule="evenodd" clip-rule="evenodd" d="M5.04886 3.79139C5.04886 2.38782 3.91863 1.25 2.52443 1.25C1.13023 1.25 0 2.38782 0 3.79139V28.7086C0 30.1122 1.13023 31.25 2.52443 31.25C3.91863 31.25 5.04886 30.1122 5.04886 28.7086V18.4285L3.76514 16.8243C2.7447 15.5492 2.94429 13.6826 4.21095 12.6553C4.46977 12.4454 4.75311 12.2868 5.04886 12.1781V3.79139Z" fill="#372477"/>
<defs>
<linearGradient id="paint0_linear_467_3772" x1="8.03626" y1="3.75" x2="32.8946" y2="3.75" gradientUnits="userSpaceOnUse">
<stop stop-color="#6666FF"/>
<stop offset="0.411558" stop-color="#22DDDD"/>
<stop offset="0.96875" stop-color="white" stop-opacity="0.96"/>
</linearGradient>
</defs>
</svg>
